<svg width="243" height="60" viewBox="0 0 243 60" fill="none" xmlns="http://www.w3.org/2000/svg">
<rect y="6" width="48" height="48" rx="8" fill="white"/>
<path d="M6.57777 15.4933C6.57777 13.8831 7.85128 12.5778 9.42222 12.5778H38.5778C40.1487 12.5778 41.4222 13.8831 41.4222 15.4933V24.24C41.4222 25.8502 40.1487 27.1555 38.5778 27.1555H9.42222C7.85128 27.1555 6.57777 25.8502 6.57777 24.24V15.4933Z" fill="#0017C1"/>
<path d="M6.57777 35.76C6.57777 34.1498 7.85128 32.8444 9.42222 32.8444H38.5778C40.1487 32.8444 41.4222 34.1498 41.4222 35.76V44.5066C41.4222 46.1169 40.1487 47.4222 38.5778 47.4222H9.42222C7.85128 47.4222 6.57777 46.1169 6.57777 44.5066V35.76Z" fill="#8B008B"/>
<path d="M59.74 8.92C60.38 9 61.22 9.06 61.88 9.06C63.14 9.06 67.26 9.06 68.44 9.06C69.12 9.06 69.9 9 70.58 8.92V11.5C69.9 11.46 69.12 11.42 68.44 11.42C67.26 11.42 63.14 11.42 61.9 11.42C61.2 11.42 60.36 11.46 59.74 11.5V8.92ZM57.44 14.02C58.02 14.1 58.72 14.16 59.34 14.16C60.6 14.16 71.26 14.16 72.44 14.16C72.86 14.16 73.74 14.12 74.28 14.02V16.64C73.78 16.6 73 16.58 72.44 16.58C71.26 16.58 60.6 16.58 59.34 16.58C58.76 16.58 57.98 16.6 57.44 16.64V14.02ZM67.66 15.42C67.66 18.04 67.2 20.04 66.36 21.72C65.66 23.1 64.12 24.66 62.34 25.56L59.98 23.86C61.4 23.3 62.82 22.16 63.62 20.98C64.62 19.48 64.88 17.58 64.88 15.44L67.66 15.42ZM71.78 7.54C72.28 8.26 73 9.54 73.36 10.28L71.76 10.96C71.36 10.14 70.74 8.96 70.2 8.18L71.78 7.54ZM74.14 6.64C74.66 7.38 75.4 8.66 75.76 9.36L74.18 10.04C73.76 9.2 73.12 8.04 72.56 7.28L74.14 6.64ZM91.38 8.66C91.94 9.5 92.76 10.82 93.2 11.74L91.48 12.5C90.88 11.24 90.44 10.38 89.7 9.34L91.38 8.66ZM94.14 7.68C94.76 8.48 95.54 9.8 96.02 10.68L94.3 11.44C93.66 10.18 93.18 9.4 92.44 8.4L94.14 7.68ZM82.7 8.26C84.02 8.98 86.22 10.4 87.26 11.12L85.76 13.34C84.66 12.56 82.56 11.2 81.24 10.46L82.7 8.26ZM79 22.46C81.22 22.08 83.62 21.42 85.8 20.22C89.2 18.32 91.98 15.58 93.58 12.72L95.12 15.44C93.26 18.2 90.44 20.74 87.16 22.62C85.14 23.78 82.26 24.78 80.5 25.1L79 22.46ZM79.62 12.82C80.96 13.54 83.16 14.92 84.18 15.64L82.72 17.88C81.58 17.1 79.52 15.74 78.16 15.04L79.62 12.82ZM105.769 14.64C108.229 16.06 111.929 18.62 113.789 20.1L111.869 22.38C110.129 20.74 106.329 17.94 103.989 16.46L105.769 14.64ZM115.189 11.24C114.949 11.62 114.689 12.18 114.509 12.68C113.909 14.52 112.689 17.08 110.889 19.3C109.009 21.64 106.449 23.88 102.629 25.32L100.309 23.32C104.489 22.02 106.869 19.92 108.589 17.92C109.929 16.34 111.169 14.04 111.549 12.48H104.789L105.709 10.22H111.409C112.029 10.22 112.689 10.12 113.149 9.98L115.189 11.24ZM108.569 8.16C108.089 8.86 107.569 9.78 107.329 10.2C105.989 12.62 103.429 15.68 100.549 17.66L98.4094 16C101.909 13.84 103.749 11.1 104.769 9.36C105.069 8.88 105.489 7.96 105.669 7.26L108.569 8.16ZM128.049 23.56C128.149 23.18 128.209 22.64 128.209 22.1C128.209 21.04 128.209 12.06 128.209 10.44C128.209 9.54 128.069 8.76 128.069 8.72H131.029C131.029 8.76 130.889 9.56 130.889 10.46C130.889 12.06 130.889 19.68 130.889 20.9C132.529 20.2 134.489 18.62 135.849 16.68L137.369 18.9C135.709 21.06 132.849 23.22 130.589 24.36C130.169 24.58 129.929 24.8 129.729 24.94L128.049 23.56ZM118.789 23.28C120.569 22.04 121.649 20.2 122.189 18.48C122.769 16.78 122.789 12.98 122.789 10.58C122.789 9.76 122.709 9.24 122.589 8.74H125.529C125.529 8.82 125.389 9.72 125.389 10.54C125.389 12.92 125.329 17.14 124.809 19.16C124.189 21.4 122.949 23.38 121.229 24.9L118.789 23.28ZM144.209 14H157.809V16.26H144.209V14ZM150.069 14.88H152.529V23.16C152.529 24.46 152.229 25.1 151.289 25.46C150.369 25.8 149.009 25.84 147.189 25.84C147.069 25.14 146.689 24.12 146.349 23.46C147.629 23.52 149.129 23.52 149.549 23.52C149.929 23.5 150.069 23.4 150.069 23.1V14.88ZM142.129 9.36H158.009V11.66H142.129V9.36ZM140.849 9.36H143.249V14.48C143.249 17.68 142.969 22.6 141.249 25.72C140.809 25.32 139.729 24.62 139.149 24.38C140.729 21.52 140.849 17.36 140.849 14.46V9.36ZM148.129 7.02H150.629V10.62H148.129V7.02ZM163.349 8.92C163.989 9 164.829 9.06 165.489 9.06C166.749 9.06 170.869 9.06 172.049 9.06C172.729 9.06 173.509 9 174.189 8.92V11.5C173.509 11.46 172.729 11.42 172.049 11.42C170.869 11.42 166.749 11.42 165.509 11.42C164.809 11.42 163.969 11.46 163.349 11.5V8.92ZM161.049 14.02C161.629 14.1 162.329 14.16 162.949 14.16C164.209 14.16 174.869 14.16 176.049 14.16C176.469 14.16 177.349 14.12 177.889 14.02V16.64C177.389 16.6 176.609 16.58 176.049 16.58C174.869 16.58 164.209 16.58 162.949 16.58C162.369 16.58 161.589 16.6 161.049 16.64V14.02ZM171.269 15.42C171.269 18.04 170.809 20.04 169.969 21.72C169.269 23.1 167.729 24.66 165.949 25.56L163.589 23.86C165.009 23.3 166.429 22.16 167.229 20.98C168.229 19.48 168.489 17.58 168.489 15.44L171.269 15.42ZM175.389 7.54C175.889 8.26 176.609 9.54 176.969 10.28L175.369 10.96C174.969 10.14 174.349 8.96 173.809 8.18L175.389 7.54ZM177.749 6.64C178.269 7.38 179.009 8.66 179.369 9.36L177.789 10.04C177.369 9.2 176.729 8.04 176.169 7.28L177.749 6.64ZM196.749 8.46C197.129 9.24 197.569 10.4 197.789 11.18L196.409 11.64C196.129 10.78 195.789 9.7 195.389 8.88L196.749 8.46ZM198.809 7.82C199.189 8.6 199.649 9.78 199.889 10.54L198.529 10.98C198.229 10.1 197.849 9.04 197.449 8.24L198.809 7.82ZM195.029 15.48C195.029 20.42 193.829 23.46 189.009 25.58L186.849 23.56C190.729 22.22 192.409 20.48 192.409 15.58V10.26C192.409 9.44 192.369 8.78 192.309 8.4H195.149C195.109 8.8 195.029 9.44 195.029 10.26V15.48ZM187.789 8.58C187.749 8.94 187.669 9.58 187.669 10.38V17.54C187.669 18.42 187.729 19.24 187.769 19.62H184.969C185.009 19.24 185.069 18.44 185.069 17.54V10.38C185.069 9.8 185.029 9.18 184.949 8.58H187.789ZM181.209 12.18C181.569 12.24 182.389 12.36 183.389 12.36H196.489C197.549 12.36 198.149 12.32 198.709 12.22V14.88C198.269 14.82 197.549 14.82 196.509 14.82H183.389C182.369 14.82 181.669 14.86 181.209 14.9V12.18ZM202.449 16.24C206.029 15.32 208.949 14.02 211.189 12.64C213.229 11.38 215.509 9.38 216.809 7.8L218.969 9.84C217.149 11.68 214.709 13.56 212.349 14.98C210.089 16.32 206.849 17.82 203.689 18.76L202.449 16.24ZM210.769 13.94L213.609 13.26V22.28C213.609 23.16 213.649 24.4 213.789 24.9H210.609C210.689 24.42 210.769 23.16 210.769 22.28V13.94ZM226.829 8.8C228.209 9.74 230.809 11.82 231.989 13.04L229.949 15.12C228.909 14 226.389 11.82 224.929 10.82L226.829 8.8ZM224.309 22.12C227.449 21.68 230.029 20.66 231.969 19.52C235.389 17.48 237.989 14.44 239.269 11.74L240.809 14.54C239.309 17.26 236.649 20.02 233.429 21.96C231.389 23.18 228.809 24.28 226.009 24.76L224.309 22.12ZM62.16 38.18C63.48 38.9 65.68 40.3 66.72 41.04L65.24 43.24C64.12 42.46 62.04 41.12 60.72 40.38L62.16 38.18ZM58.46 52.38C60.7 52 63.08 51.32 65.26 50.12C68.66 48.22 71.46 45.48 73.04 42.62L74.58 45.34C72.74 48.12 69.9 50.64 66.64 52.54C64.6 53.68 61.72 54.68 59.96 55L58.46 52.38ZM59.08 42.74C60.42 43.46 62.62 44.82 63.66 45.56L62.18 47.8C61.06 47 58.98 45.66 57.64 44.94L59.08 42.74ZM93.46 40.46C93.3 40.68 92.94 41.28 92.76 41.7C91.94 43.6 90.46 46.32 88.74 48.32C86.5 50.9 83.48 53.38 80.38 54.84L78.3 52.68C81.54 51.48 84.62 49.04 86.5 46.96C87.82 45.46 89.04 43.48 89.5 42.06C88.66 42.06 83.56 42.06 82.7 42.06C81.88 42.06 80.78 42.16 80.34 42.2V39.34C80.88 39.42 82.12 39.48 82.7 39.48C83.76 39.48 88.88 39.48 89.76 39.48C90.64 39.48 91.42 39.38 91.84 39.24L93.46 40.46ZM89 46.66C91.06 48.34 93.9 51.32 95.2 52.92L92.92 54.9C91.44 52.84 89.26 50.46 87.12 48.52L89 46.66ZM101.62 38.68C102.26 38.76 103.08 38.82 103.76 38.82C105.02 38.82 110.62 38.82 111.8 38.82C112.46 38.82 113.26 38.76 113.94 38.68V41.26C113.26 41.22 112.48 41.18 111.8 41.18C110.62 41.18 105.02 41.18 103.76 41.18C103.08 41.18 102.22 41.22 101.62 41.26V38.68ZM99.28 43.78C99.88 43.86 100.58 43.9 101.2 43.9C102.46 43.9 113.12 43.9 114.3 43.9C114.72 43.9 115.6 43.88 116.14 43.78V46.38C115.62 46.36 114.86 46.34 114.3 46.34C113.12 46.34 102.46 46.34 101.2 46.34C100.62 46.34 99.84 46.36 99.28 46.4V43.78ZM109.52 45.18C109.52 47.8 109.06 49.8 108.2 51.46C107.52 52.86 105.96 54.4 104.2 55.32L101.84 53.62C103.26 53.06 104.68 51.92 105.46 50.74C106.46 49.22 106.74 47.34 106.74 45.2L109.52 45.18ZM128.875 38.92C128.615 39.52 128.335 40.26 128.035 41.16C127.295 43.4 125.215 49.84 124.355 51.92L121.415 52.02C122.495 49.46 124.575 42.9 125.235 40.58C125.515 39.58 125.615 38.94 125.695 38.28L128.875 38.92ZM132.455 45.38C133.895 47.54 135.935 51.48 136.855 53.7L134.155 54.9C133.255 52.48 131.395 48.34 129.975 46.42L132.455 45.38ZM121.215 51.12C123.995 51.02 130.535 50.28 133.335 49.9L133.915 52.46C130.955 52.84 124.075 53.56 121.375 53.84C120.875 53.9 120.115 54 119.495 54.08L119.015 51.14C119.695 51.16 120.575 51.14 121.215 51.12Z" fill="black"/>
</svg>
